<svg xmlns="http://www.w3.org/2000/svg" id="layer" width="468.66" height="499.5" x="0" y="0" version="1.1" xml:space="preserve"><style id="style2" type="text/css">.st1{fill:#fff}</style><path id="path4" fill="#231f20" d="M296.41749 429h-125.3v-33.4h125.3zM2.1174889 381.6H167.41749l-30.2-33.4H2.1174889zm132.9000011 2.2v8.7l33.9 34.9v-43.7h-33.9zm330.4-35.6h-135.1l-30.2 33.4h165.3zm-166.8 35.6v43.7l33.9-34.9v-8.7h-33.9zm-43.4-377.1h-7.6c-3.7 2.9-18.9 5.6-31.4-1.8-14.8 1-20 2.2-22-1.6-2 1.8-7.9 1.9-10.6 1.8-2 2.1-1.6 2.9-12.5 2.7-.8 2.5-.2 4.2 1.1 5.8 1.3 1.6 30 29.1 31.6 30.7 1.6 1.6 11.5 14.3-3 26.9-1.6 1.3-2.3.8-2.6 3.9h16.1l7.7-10.5V47.7l38.1-1.7c2.6 1.3 22.5 12.4 12.4 22.1-4 3.8-5.5 4-6.1 7h16.5l7-16.1c-1.3 0-1.9-1.2-1.9-1.9V44.8c.2-.9.2-2.9 1.9-3.1 0-2.3-10.4-35-34.7-35m-50.3 43.5c-1.1-2.5-2.5-4.1-3.1-4.6-.5-.5-4-3.9-8.5-8.2l-15.4 10.1-.2 10.9c0 1.5.2 9.6 10.4 8.8l.8-13.2zm61.7 2.7c-3.1-2.4-6-4-7.4-4.7l-10.7.4c.2 5.4.2 17.7-10 21.3-2.9 1-3.2 3.7-3.3 5.1h16.3c.4-2.1 5.5-7.1 7-7.3-.1-1.8 4.1-10.6 8.1-14.8m-136.7 52.5l-39.000001 29.5v15l43.400001-39.5h47.9l1.9-5zM2.1174889 328.6c2.9 0 3 2.3 3 2.3v9.9h2.4v-56l27.9000001-32.4s-.1-1.9 0-28.6c.1-20.4 4.1-25.1 12.3-32.8l25.6-24.5.3-.3 3.6-3.4 2.3 3.4.2.3 25.900001 38.9 13.6 30.3c2 0 3 2.3 3 2.3l5.2 9.9h2.4l-5.2-12.2-14.1-33.6s-11.200001-21.3-18.000001-35.7c0-.1-.1-.2-.1-.3-3.4-6.9-5.9-12-5.8-12.1l2.1-2.1v-15.8c0-9-1.7-13.9-3.8-15.9 1.2 0 2 .2 2.8.3-.5-.7-2.7-4.6-4.9-7.2 1.5-1.2 2.5-1.9 2.5-2-2.3-1.7-23.4-15.7-24-26.5-.2-2.8 1-5.4 4-7.6.9 1.2 2.9 4.4 5.4 7.6 3.1 3.9 6.8 7.8 9.8 7.8V75.8h15l2.3-5h-7c-3.4 0-3.5-5 0-5 3 0 4.8-.1 9.300001 0l2.7-6.2-4.800001-6.6c-7-.7-11.2-.8-15.4-1.8-11-2.5-8.2-12.3-.1-13.3 4.8-.6 9.6-.5 16.6-1.8 14.600001-2.8 18.400001-15.3 13.200001-31.5-.4-1.4-2.7-2.5-4.8-.2 1.2 5.2 1.6 7.7 1.9 10.2.4 3.7-5.9 5.6-7 .3l-1.6-8.3c-.6-3.3-3.200001-4.5-5.600001-1.7.6 1.1.6 1.8.6 1.9l1.5 7.7c.8 4.3-6 5.3-7 .5l-1.6-8.5c-.7-3.3-3.2-4.5-5.6-1.7.6 1.1.6 1.8.6 1.9.2.8 1.1 5.5 1.1 5.8.9 7.8-11.7 7.8-11.1 0 0-.5.8-5 1.1-5.9 0-.1 0-.7.6-1.9-2.4-2.8-5-1.6-5.6 1.7l-1.3 6.8c-.1 1.1 0 2.8.8 4.2.9 1.7 5.4 5.6 6 8.3 1.4 6.3-4.3 12.5-10.4 12.5-10.4 0-12.4-11.2-9.4-15.9.2-.2 3.1-3.5 3.3-4.4.2-.9-.1-2.6-.2-2.9l-1.7-8.4c-.7-3.3-3.2-4.5-5.6-1.7.6 1.1.6 1.8.6 1.9l1.4 7.7c.8 4.3-6 5.3-7 .5l-1.6-8.5c-.7-3.3-3.2-4.5-5.6-1.7.6 1.1.6 1.8.6 1.9l2.3 11.4c1.3 6.1-8 8-9.4.8l-2.5-12.4c-.7-3.3-3.2-4.5-5.6-1.7.6 1.1.6 1.8.6 1.9l1.5 7.7c.8 4.3-6 5.3-7 .5l-1.6-8.5c-.6-3.3-3.2-4.5-5.6-1.7.6 1.1.6 1.8.6 1.9l1.5 7.7c.8 4.2-6.4000001 5.2-7.5000001.4-1.1-5-1.6-9.6-2.3-10.4-1.4-1.5-3.99999997-1.3-4.69999997.2-.2.8 1.39999997 4.6.5 10.5-.3 1.8-.4 4.3-.1 5.5C3.2174889 32.4 11.717489 35.9 20.617489 36.5c8.5.6 17.5 1.4 26.6 1.8 8.9.4 8.7 13.1.4 13.1h-14.3l7.1 10.3c-2.8 3.9-10.9 12.8-17.3 23.4-3.1 5.1-5.8 10.7-7.2 16.3h3.7c-2 2.3-3.4 6.4-3.6 9.8h3.3c-1.3 2.2-2.8 7.7-2.8 10.7 5.4-.2 6.5 3.4 6.6 5V140c-1 2.8-6 15.2-10.4 26.5 0 .1 0-.1 0 0-2.7 6.5-5.0000001 12.9-6.3000001 16.7-3.8 11.1-4.9 26.5-4.6 33.6 7.8 0 7.7 6.1 7.7 6.1v40.6c0 5.9-7.1 9.8-7.1 9.8zM60.317489 259v14.9c0 3.1-4 3.5-4 3.5l26.6 51.2h.1c2 0 3 2.3 3 2.3l5.4 9.9h3.3l-6.4-12.2-20-40.2 10.9-48.9-30.1-46.5v-.2c-9.2 8.3-11.3 16.8-11.3 33zM376.61749 134.9l-39-29.5h-54.3l1.9 5h47.8l43.5 39.6zm56.5-127c2.8 1.8 15 15.2 2.5 29.9-3.9 4.6-9.9 5.6-13.1 5.6.6-1.1 1.5-3.1 1.9-6.2l7.9-5.7c2.7-1.9 2.7-4.8-.8-6-.8 1-1.3 1.3-1.4 1.4l-4.3 3.1c-2.8 1.9-6.8-2.1-4.5-4.9l5.5-6.7c2.1-2.6 1.4-5.4-2.2-5.6-.5 1.2-1 1.6-1 1.7l-6.3 7.6c-2.9 3.5-8.7 1.7-6.9-2.4l4.3-9.9c1.4-3.1 0-5.6-3.6-4.8-.2 1.3-.5 1.8-.6 1.9l-4.7 10.7c-.8 1.6-2.8 1.8-3.6 1.5-.9-.4-1.8-.8-2.9-1.2l1.4-13c.4-3.3-1.7-5.3-4.9-3.4.2 1.3.1 1.9 0 2l-1 9.3c-.3 1.8-4.4 1.2-4.9 1-1.6-.8-3.1-1.9-3.4-3l-1.7-7c-.8-3.3-3.4-4.3-5.7-1.3.7 1.1.7 1.7.7 1.8l2.2 8.7c1.4 4.4 7.1 6.1 15 9.6 1.9.8 13.1 6.2 17.5 8.3 6.8 3.2 4.6 12.9-1.8 12.9-6.1-.1-7.1-6.8-6.6-9.8-2.9-.1-7.4 2-3.1 9.8-2.7 0-7.1-2.3-6.9-9.8-2.4-.1-3.1.6-4 2-.9 1.4-2.8 13.2 15.8 13.3l-4.8 4.6-20.7 1.6-.2 2.5 2.8 6.2h7.3c3.5 0 3.4 5.3-.1 5.3h-4.9l1.9 4.9h15.4c4.2-4.2 10.1-3.2 11 2.3 1.1 7-6.3 20.4-21.4 20.4 1.1 1.4 2.5 2.5 3.3 3.1-2.5 1.7-5.7 3.5-8.7 4.2 1.3 1.7 1.5 1.9 2.9 3.1-2.7 2.1-6 4.3-7.9 4.6.9 1.3 1.4 2.1 2.1 2.6-5.7 4.6-7.1 12.7-7 21.7v15.9l2 2c.2.4-23.9 48.1-23.9 48.1l-14.1 33.6-5.2 12.2h2.4l5.2-9.9s1-2.3 3-2.3l13.6-30.3 28.3-42.6 28.5 27.2c6.4 5.8 13.3 10.4 13.3 33.8v28.6l27.9 32.4v56h2.4v-9.9s.1-2.3 3-2.3v-55.4s-7.1-4.5-7.1-8.8v-41.6s.1-6.1 7.9-6.1c.2-16.7.4-22.8-21.3-51.7-24.2-32.3-18.8-29.4-8.6-74.7 3.7-16.5 3-21.3 1-26.9l8.5-9.9h-14.9l-3.8-4.9c6-1.2 10.4-5.1 10.4-5.1h27c3.3 0 4.9-2.4 2.7-5.4-1.2.4-1.8.3-1.9.3h-17.8c-3.5 0-3.6-3.2-3.3-3.7.1-.2.2-.4.3-.7l21.4-6.8c3.1-1 4-3.8 1-6-1 .7-1.6.8-1.7.8l-15 4.8c-2.9.9-3.6-2.6-3.7-3.1 0-.4-.1-.7-.1-1.1l14.8-10.4c2.7-1.9 2.8-4.8-.7-6-.8 1-1.3 1.3-1.4 1.3l-9.9 7c-4 2.8-6.9-2.1-4.3-4.9l3.7-4.3c2.1-2.5 1.5-5.4-2.1-5.6-.5 1.2-1 1.6-1.1 1.7l-3.3 3.8c-1.2 1.3-2.7 1.3-3.6.5-.2-.2-.3-.3-.6-.5l-5-3.8c-.1-.1-.6-.4-1.3-1.5-3.6.9-3.7 3.8-1.2 5.9l2.8 1.8m-3.2 218c-.1-16.5-2.8-25.7-11.3-33.2h-.1l-30.2 46.7 10.5 48.9-20.1 40.2-6.4 12.2h3.8l5.4-9.9s1-2.3 3-2.3h.1l26.6-51.2s-4-.4-4-3.5v-14.9l22.5-33.2zm-142-131.9c3.5 0 6.3-2.9 6.3-6.5s-2.8-6.5-6.3-6.5h-109.7c-3.5 0-6.3 2.9-6.3 6.5s2.8 6.5 6.3 6.5zm-74.1-2.5l-3.6-8h19.2l3.6 8zm39.6 0l-3.6-8h19.8l3.6 8zm-64.2-8.1l3.6 8h-14.7c-2.1 0-3.9-1.8-3.9-4s1.7-4 3.9-4zm-27.8 244.7c-18.9-14.6-26.4-39.6-26.4-53.6V112.9h197.5v161.6c0 13.9-7.5 39-26.4 53.6-18.9 14.6-72.4 45.1-72.4 45.1s-53.5-30.6-72.3-45.1m47.9-73.3l-5.7 9 2.7 1.6-12.2 7.3.7.4 35.6 20.8 1 .6v-44.1l-12.1 7.2v-3.2l-8.6.4zm47.3-.1l-8.1-.4v3.2l-12.4-7.1v44.1l1-.6 35.6-20.8 1.3-.8-12.1-7 2.7-1.6-5.4-8.8zm-20.4 88.6v-40.7l40.2-23.3v14.4l2.6-1.5 5.8 9.3 6-9.2 2.6 1.6V286.1l15.8 9.2.1-3.2 10.7-.4-4.6-10 2.7-1.5-15.4-9 15.1-8.8-2.6-1.6 4.9-9.8-10.7-.7v-3.2l-15.6 9.1v-18.7l-2.7 1.6-5.9-9.2-5.9 9.3-2.7-1.6v18.3l-6-3.5-.2 3.4-8.8-.6-1.2-.1-5.9-8.9 2.7-1.6-5.2-3.1-.9-.6 15.1-9-2.7-1.6 4.9-9.8-10.7-.8v-3.2l-15.5 9.3v-18.5l-2.7 1.6-5.9-9.3-5.9 9.3-2.7-1.6v18.6l-15.7-9.1v3.2l-10.7.8 4.9 9.8-2.6 1.6 15.5 9-.7.4-5.2 3.1 2.7 1.6-5.4 8.8-1.5.1-8.7.6-.2-3.4-5.8 3.5V237.8l-2.7 1.6-5.9-9.3-5.9 9.2-2.7-1.6v18.7l-15.6-9.1v3.2l-10.7.7 4.9 9.8-2.6 1.6 15.1 8.8-15.5 9.1 2.7 1.5-4.6 10 10.7.4.1 3.2 15.8-9.3V294.1l2.6-1.6 6 9.2 5.8-9.3 2.6 1.5v-14.4l39.3 23v40.7h5.2zm-98.8-203.7h87.8v-24.2h-87.8zm104.9 0h87.8v-24.2h-87.8zm87.8 18.4h-87.8v24.2h87.8zm-104.9 0h-87.8v24.2h87.8zm-43.9 307.4h5.5v5.3h.1c1.7-3.8 5.8-6.1 10-6.1 7.9 0 11.5 5.4 11.5 14.3v19.8h-5.6v-17.2c0-7.8-1.6-11.5-6.5-11.9-6.4 0-9.3 5.6-9.3 13.7v15.4h-5.7zm56.6 2.3c2.8-1.8 6.2-3.1 10.1-3.1 8.8 0 12.3 4.7 12.3 13.8v13.8c0 3.8.1 5.5.2 6.5h-5.3v-4.3h-.1c-1.3 2-4.3 5.1-9.5 5.1-6.6 0-11.2-3.1-11.2-10.4 0-8.3 8.4-11 14.2-11 2.2 0 3.8 0 6 .1 0-5.7-1.9-8.7-7.6-8.7-3.2 0-6.6 1.3-8.9 3.4zm16.7 15.1c-1.2 0-2.4-.1-3.6-.1-3.1 0-10.6.5-10.6 6.4 0 3.5 3.1 5.4 5.7 5.4 5.6 0 8.5-3.8 8.5-8.7zm29.6-12.1c-.8-.2-1.6-.3-2.3-.3-5.3 0-8.8 5.2-8.8 13.6v14.6h-5.9v-33h5.6v5.4h.1c1.6-3.5 5-5.9 8.4-5.9 1.3 0 2.1.1 3 .3v5.3zm33.1-6.1c9.3 0 15.5 7.3 15.5 17.4 0 9.5-6.4 17.4-15.5 17.4-9.2 0-15.6-7.9-15.6-17.4 0-10.1 6.2-17.4 15.6-17.4m0 29.8c6.6 0 9.5-6.5 9.5-12.5 0-6.3-3.5-12.5-9.5-12.5-6.1 0-9.6 6.1-9.6 12.5 0 6 2.9 12.5 9.6 12.5m-86.9-29h-8.3v-9.6l-5.9 2v7.7l-4.8 5h4.8v19.4c0 6.7 3.8 9.6 9.9 9.6 1.8 0 3.5-.5 4.8-.8v-5.1c-.9.5-2.1 1-3.8 1-2.7 0-5-2.1-5-5.9v-18.2h8.3zm59.2 0h5.9v33.3h-5.9zm2.9-4.5c2 0 3.6-1.7 3.6-3.8 0-2.1-1.6-3.8-3.6-3.8s-3.6 1.7-3.6 3.8c0 2.1 1.6 3.8 3.6 3.8m-137.5-8.6c12.7 0 20.1 10 20.1 23.6 0 13.8-7.4 23.5-20.1 23.5-12.8 0-20.1-9.7-20.1-23.5-.1-13.5 7.3-23.6 20.1-23.6m0 41.4c9.7 0 13.8-8.7 13.8-17.8 0-9.3-4.6-17.9-13.8-17.8-9.2-.1-13.8 8.5-13.8 17.8 0 9 4.1 17.8 13.8 17.8"/><path id="polyline6" fill="#fff" d="M104.3 444.8h-2.1l-4.1-16.1h2l3.2 14.2 3.3-14.2h1.8" class="st1" transform="translate(-86.682511 -72.5)"/><path id="polyline8" fill="#fff" d="M118.3 428.7v1.8h-3.7v14.3h-1.8v-14.3h-3.7v-1.8" class="st1" transform="translate(-86.682511 -72.5)"/><path id="rect10" fill="#fff" d="M38.417488 356.20001h1.8v16.1h-1.8z" class="st1"/><path id="polyline12" fill="#fff" d="M140.1 428.7v16.1h-2.4l-5.6-13.9v13.9h-1.6v-16.1h2.5l5.5 13.8v-13.8" class="st1" transform="translate(-86.682511 -72.5)"/><path id="path14" fill="#fff" d="M63.017489 360.7c0-.9 0-1.8-.4-2.3-.4-.5-1.2-.7-1.6-.7-1.5 0-2.1 1-2.1 1.2 0 .2-.4.6-.4 3.3v4.3c0 3.9 1.1 4.4 2.5 4.4.5 0 2.2-.2 2.2-3.4h1.8c.1 5.1-3 5.1-4 5.1-1.7 0-4.4-.1-4.4-6.4v-4.6c0-4.6 1.8-5.8 4.5-5.8 2.8 0 3.8 1.6 3.7 4.8" class="st1"/><path id="polyline16" fill="#fff" d="M154.6 444.8v-16.1h7.2v1.8h-5.5v5.2h5.1v1.8h-5.1v5.6h5.6v1.7" class="st1" transform="translate(-86.682511 -72.5)"/><path id="path18" fill="#fff" d="M78.017489 372.3v-16.1h4.2c1.9 0 3.9.8 3.9 4.6 0 3.7-2.5 4.4-3.9 4.4h-2.4v7.1m0-8.8h2c.7 0 2.5-.2 2.5-2.7 0-2.4-1.6-2.7-2-2.7h-2.5z" class="st1"/><path id="rect20" fill="#fff" d="M89.017487 356.20001h1.8v16.1h-1.8z" class="st1"/><path id="polyline22" fill="#fff" d="M188.9 428.7v1.8h-3.7v14.3h-1.8v-14.3h-3.6v-1.8" class="st1" transform="translate(-86.682511 -72.5)"/><path id="path24" fill="#fff" d="M335.11749 367.5v.5c0 2.2 1.2 2.9 2.3 2.9 1.4 0 2.5-.7 2.5-2.6 0-3.6-6.3-3.2-6.3-8 0-2.9 1.8-4.4 4.1-4.4 2.6 0 4 1.4 3.9 4.7h-1.9c0-1.8-.5-2.9-2.2-2.9-1.1 0-2.1.6-2.1 2.4 0 3.5 6.3 3 6.3 8.1 0 3.4-2 4.5-4.3 4.5-4.1 0-4.1-3.6-4.1-5.1" class="st1"/><path id="rect26" fill="#fff" d="M345.01749 356.20001h1.8v16.1h-1.8z" class="st1"/><path id="path28" fill="#fff" d="M356.51749 360.7c0-.9 0-1.8-.4-2.3-.4-.5-1.2-.7-1.6-.7-1.5 0-2.1 1-2.1 1.2-.1.2-.4.6-.4 3.3v4.3c0 3.9 1.1 4.4 2.5 4.4.5 0 2.2-.2 2.2-3.4h1.9c.1 5.1-3 5.1-4 5.1-1.7 0-4.4-.1-4.4-6.4v-4.6c0-4.6 1.8-5.8 4.5-5.8 2.8 0 3.8 1.6 3.7 4.8" class="st1"/><path id="path30" fill="#fff" d="M366.11749 372.3v-16.1h4.2c1.9 0 3.9.8 3.9 4.6 0 3.7-2.5 4.4-3.9 4.4h-2.4v7.1m0-8.8h2c.7 0 2.5-.2 2.5-2.7 0-2.4-1.6-2.7-2-2.7h-2.5z" class="st1"/><path id="polyline32" fill="#fff" d="M463.5 444.8v-16.1h7.3v1.8h-5.5v5.2h5.1v1.8h-5.1v5.6h5.6v1.7" class="st1" transform="translate(-86.682511 -72.5)"/><path id="path34" fill="#fff" d="M388.51749 364.9v7.4h-1.8v-16.1h4.8c2.5 0 3.4 2 3.4 4 0 1.9-.9 3.3-2.6 3.7 1.6.3 2.2.9 2.3 4.1 0 .7.2 3.2.5 4.2h-1.8c-.5-1.1-.4-3.2-.5-5.4-.1-2-1.5-2.1-2.1-2.1m-2.2-1.5h2.7c1.3 0 1.9-1.3 1.9-2.7 0-1.2-.5-2.4-1.9-2.4h-2.7z" class="st1"/><path id="polyline36" fill="#fff" d="M486.1 444.8h-1.6v-16.1h2.9l3.5 13.6 3.6-13.6h2.9v16.1h-1.7v-14.3h-.1l-3.9 14.3H490l-3.8-14.3h-.1" class="st1" transform="translate(-86.682511 -72.5)"/><path id="path38" fill="#fff" d="M417.31749 356.2h2.3l4.6 16.1h-2l-1-3.8h-5.4l-1 3.8h-1.8m5.4-14.2l-2.2 8.6h4.5z" class="st1"/><path id="polyline40" fill="#fff" d="M522.6 428.7v16.1h-2.5l-5.5-13.9v13.9H513v-16.1h2.5l5.5 13.8v-13.8" class="st1" transform="translate(-86.682511 -72.5)"/><path id="polyline42" fill="#fff" d="M526 444.8v-16.1h7.2v1.8h-5.4v5.2h5v1.8h-5v5.6h5.6v1.7" class="st1" transform="translate(-86.682511 -72.5)"/><path id="polyline44" fill="#fff" d="M543.8 428.7v1.8h-3.7v14.3h-1.8v-14.3h-3.7v-1.8" class="st1" transform="translate(-86.682511 -72.5)"/><path id="polyline46" fill="#fff" d="M291.1 492.5v-16.1h7v1.8h-5.2v5.2h4.9v1.8h-4.9v7.3" class="st1" transform="translate(-86.682511 -72.5)"/><path id="rect48" fill="#fff" d="M213.61748 403.89999h1.8v16.1h-1.8z" class="st1"/><path id="path50" fill="#fff" d="M219.01749 403.9h4.3c1.8 0 3.1.7 3.8 2.4.6 1.4.6 4.6.6 5.1 0 3.4-.3 5.4-.9 6.5-.8 1.4-2.2 2.1-4.6 2.1h-3.2m1.8-1.8h1.7c2.5 0 3.4-1.1 3.4-4.8v-3.3c0-3.2-.9-4.5-2.7-4.5h-2.4z" class="st1"/><path id="polyline52" fill="#fff" d="M317.7 492.5v-16.1h7.3v1.8h-5.5v5.2h5.1v1.8h-5.1v5.5h5.6v1.8" class="st1" transform="translate(-86.682511 -72.5)"/><path id="polyline54" fill="#fff" d="M327.6 492.5v-16.1h1.8v14.3h5.2v1.8" class="st1" transform="translate(-86.682511 -72.5)"/><path id="rect56" fill="#fff" d="M250.0175 403.89999h1.8v16.1h-1.8z" class="st1"/><path id="path58" fill="#fff" d="M256.71749 415.2v.5c0 2.2 1.2 2.9 2.4 2.9 1.4 0 2.5-.7 2.5-2.6 0-3.6-6.3-3.2-6.3-8 0-2.9 1.8-4.4 4.1-4.4 2.6 0 4 1.4 3.9 4.7h-1.9c0-1.8-.5-2.9-2.2-2.9-1.1 0-2.1.6-2.1 2.4 0 3.5 6.3 3 6.3 8.1 0 3.4-2 4.5-4.3 4.5-4.1 0-4.1-3.6-4.1-5.1" class="st1"/></svg>